<?xml version="1.0" encoding="utf-8"?>
<svg width="350" height="310" viewBox="0 0 350 310" fill="none" xmlns="http://www.w3.org/2000/svg">
  <defs>
    <linearGradient id="gradient_1" gradientUnits="userSpaceOnUse" x1="350" y1="-0" x2="-0" y2="323">
      <stop offset="0" stop-color="#2196F3" />
      <stop offset="1" stop-color="#23669C" />
    </linearGradient>
  </defs>
  <path d="M175 0C160.002 0 147.845 12.1274 147.845 27.0874C147.845 38.8815 155.401 48.915 165.948 52.6335L165.948 84.272L97.2124 84.272C64.0708 84.272 37.2124 111.13 37.2124 144.272L37.2124 148.479L29.9063 148.479Q29.1721 148.479 28.4388 148.515Q27.7055 148.551 26.9749 148.623Q26.2443 148.695 25.5181 148.803Q24.7919 148.91 24.0718 149.054Q23.3518 149.197 22.6396 149.375Q21.9275 149.554 21.2249 149.767Q20.5224 149.98 19.8311 150.227Q19.1399 150.475 18.4616 150.755Q17.7833 151.036 17.1197 151.35Q16.456 151.664 15.8085 152.01Q15.1611 152.356 14.5314 152.734Q13.9017 153.111 13.2912 153.519Q12.6808 153.927 12.0911 154.364Q11.5014 154.802 10.9339 155.267Q10.3664 155.733 9.82244 156.226Q9.27847 156.719 8.75934 157.238Q8.24021 157.757 7.74718 158.301Q7.25415 158.845 6.78841 159.413Q6.32266 159.98 5.88532 160.57Q5.44799 161.16 5.04011 161.77Q4.63224 162.381 4.2548 163.01Q3.87737 163.64 3.53129 164.288Q3.18521 164.935 2.87132 165.599Q2.55743 166.262 2.27648 166.941Q1.99553 167.619 1.7482 168.31Q1.50087 169.001 1.28775 169.704Q1.07464 170.406 0.896253 171.119Q0.717867 171.831 0.57464 172.551Q0.431413 173.271 0.32369 173.997Q0.215967 174.723 0.144007 175.454Q0.0720468 176.185 0.0360234 176.918Q0 177.651 0 178.385L0 219.9Q0 220.634 0.0360234 221.367Q0.0720468 222.1 0.144007 222.831Q0.215967 223.562 0.32369 224.288Q0.431413 225.014 0.57464 225.734Q0.717867 226.454 0.896253 227.166Q1.07464 227.878 1.28775 228.581Q1.50087 229.283 1.7482 229.975Q1.99553 230.666 2.27648 231.344Q2.55743 232.023 2.87132 232.686Q3.18521 233.35 3.53129 233.997Q3.87737 234.645 4.2548 235.275Q4.63224 235.904 5.04011 236.515Q5.44799 237.125 5.88532 237.715Q6.32266 238.304 6.78841 238.872Q7.25415 239.439 7.74718 239.983Q8.24021 240.527 8.75934 241.047Q9.27847 241.566 9.82244 242.059Q10.3664 242.552 10.9339 243.017Q11.5014 243.483 12.0911 243.921Q12.6808 244.358 13.2912 244.766Q13.9017 245.174 14.5314 245.551Q15.1611 245.928 15.8085 246.275Q16.456 246.621 17.1197 246.935Q17.7833 247.248 18.4616 247.529Q19.1399 247.81 19.8311 248.058Q20.5224 248.305 21.2249 248.518Q21.9275 248.731 22.6396 248.91Q23.3518 249.088 24.0718 249.231Q24.7919 249.374 25.5181 249.482Q26.2443 249.59 26.9749 249.662Q27.7055 249.734 28.4388 249.77Q29.1721 249.806 29.9063 249.806L37.2124 249.806L37.2124 250C37.2124 283.142 64.0708 310 97.2124 310L252.787 310C285.929 310 312.787 283.142 312.787 250L312.787 144.272C312.787 111.13 285.929 84.272 252.787 84.272L185.057 84.272L185.057 52.2561C195.076 48.2692 202.155 38.503 202.155 27.0874C202.155 12.1274 189.997 0 175 0ZM37.2124 235.707L37.2124 164.584Q36.5124 164.531 35.8103 164.531L35.5977 164.531Q35.1435 164.531 34.6899 164.553Q34.2363 164.575 33.7843 164.62Q33.3324 164.664 32.8831 164.731Q32.4339 164.798 31.9885 164.886Q31.5431 164.975 31.1025 165.085Q30.662 165.196 30.2274 165.327Q29.7928 165.459 29.3652 165.612Q28.9376 165.765 28.518 165.939Q28.0984 166.113 27.6879 166.307Q27.2773 166.501 26.8768 166.715Q26.4763 166.929 26.0868 167.163Q25.6972 167.396 25.3196 167.649Q24.942 167.901 24.5772 168.171Q24.2124 168.442 23.8614 168.73Q23.5103 169.018 23.1738 169.323Q22.8373 169.628 22.5162 169.949Q22.195 170.27 21.8901 170.607Q21.5851 170.943 21.297 171.294Q21.0089 171.646 20.7383 172.01Q20.4678 172.375 20.2155 172.753Q19.9632 173.13 19.7297 173.52Q19.4962 173.909 19.2821 174.31Q19.068 174.71 18.8739 175.121Q18.6797 175.532 18.5059 175.951Q18.3321 176.371 18.1791 176.798Q18.0261 177.226 17.8943 177.66Q17.7624 178.095 17.6521 178.536Q17.5417 178.976 17.4531 179.422Q17.3645 179.867 17.2979 180.316Q17.2313 180.765 17.1867 181.217Q17.1422 181.669 17.1199 182.123Q17.0977 182.577 17.0977 183.031L17.0977 217.261Q17.0977 217.715 17.1199 218.168Q17.1422 218.622 17.1867 219.074Q17.2313 219.526 17.2979 219.975Q17.3645 220.424 17.4531 220.87Q17.5417 221.315 17.6521 221.756Q17.7624 222.196 17.8943 222.631Q18.0261 223.065 18.1791 223.493Q18.3321 223.921 18.5059 224.34Q18.6797 224.76 18.8739 225.17Q19.068 225.581 19.2821 225.981Q19.4962 226.382 19.7297 226.771Q19.9632 227.161 20.2155 227.539Q20.4678 227.916 20.7383 228.281Q21.0089 228.646 21.297 228.997Q21.5851 229.348 21.8901 229.684Q22.195 230.021 22.5162 230.342Q22.8373 230.663 23.1738 230.968Q23.5103 231.273 23.8614 231.561Q24.2124 231.849 24.5772 232.12Q24.942 232.39 25.3196 232.643Q25.6972 232.895 26.0868 233.128Q26.4763 233.362 26.8768 233.576Q27.2773 233.79 27.6879 233.984Q28.0984 234.178 28.518 234.352Q28.9376 234.526 29.3652 234.679Q29.7928 234.832 30.2274 234.964Q30.662 235.096 31.1025 235.206Q31.5431 235.316 31.9885 235.405Q32.4339 235.494 32.8831 235.56Q33.3324 235.627 33.7843 235.671Q34.2363 235.716 34.6899 235.738Q35.1435 235.761 35.5977 235.761L35.8103 235.761Q36.5124 235.761 37.2124 235.707ZM175 17.0552C169.445 17.0552 164.942 21.7714 164.942 27.5892C164.942 33.4069 169.445 38.1231 175 38.1231C180.554 38.1231 185.057 33.4069 185.057 27.5892C185.057 21.7714 180.554 17.0552 175 17.0552ZM295.689 146.327C295.689 121.471 275.546 101.327 250.689 101.327L100.316 101.327C75.4597 101.327 55.3159 121.471 55.3159 146.327L55.3159 247.945C55.3159 272.801 75.4597 292.945 100.316 292.945L250.689 292.945C275.546 292.945 295.689 272.801 295.689 247.945L295.689 146.327ZM320 148.479C336.571 148.479 350 161.908 350 178.479L350 219.806C350 236.377 336.571 249.806 320 249.806L312.787 249.806L312.787 235.7C313.285 235.74 313.788 235.761 314.296 235.761C324.573 235.761 332.902 227.432 332.902 217.154L332.902 183.137C332.902 172.86 324.573 164.531 314.296 164.531C313.788 164.531 313.285 164.551 312.787 164.591L312.787 148.479L320 148.479ZM87.5 198.641C87.5 180.91 101.909 166.537 119.684 166.537C137.459 166.537 151.868 180.91 151.868 198.641C151.868 216.371 137.459 230.744 119.684 230.744C101.909 230.744 87.5 216.371 87.5 198.641ZM230.316 166.537C212.542 166.537 198.132 180.91 198.132 198.641C198.132 216.371 212.542 230.744 230.316 230.744C248.091 230.744 262.5 216.371 262.5 198.641C262.5 180.91 248.091 166.537 230.316 166.537ZM70.4021 220.02L70.4021 178.265Q70.4023 178.325 70.4023 178.385L70.4023 219.9Q70.4023 219.96 70.4021 220.02ZM107.764 199.235C107.764 192.34 113.101 186.75 119.684 186.75C126.267 186.75 131.604 192.34 131.604 199.235C131.604 206.13 126.267 211.72 119.684 211.72C113.101 211.72 107.764 206.13 107.764 199.235ZM230.317 186.75C223.733 186.75 218.396 192.34 218.396 199.235C218.396 206.13 223.733 211.72 230.317 211.72C236.9 211.72 242.236 206.13 242.236 199.235C242.236 192.34 236.9 186.75 230.317 186.75Z" fill="url(#gradient_1)" fill-rule="evenodd" />
</svg>